<svg viewBox="0 0 64 64" fill="none" xmlns="http://www.w3.org/2000/svg">
<path d="M17 21.9383V21.0833C17 20.5308 17.1975 20.0009 17.5492 19.6102C17.9008 19.2195 18.3777 19 18.875 19H45.125C45.6223 19 46.0992 19.2195 46.4508 19.6102C46.8025 20.0009 47 20.5308 47 21.0833V21.9383L32 32.3549L17 21.9383ZM32.4969 34.4669C32.3478 34.5703 32.1757 34.6251 32 34.6251C31.8243 34.6251 31.6522 34.5703 31.5031 34.4669L17 24.3951V41.9167C17 42.4692 17.1975 42.9991 17.5492 43.3898C17.9008 43.7805 18.3777 44 18.875 44H45.125C45.6223 44 46.0992 43.7805 46.4508 43.3898C46.8025 42.9991 47 42.4692 47 41.9167V24.3951L32.4969 34.4669Z" fill="#EEEEEE" fill-opacity="0.9"/>
<path d="M32 64C14.4 64 0 49.6 0 32C0 14.4 14.4 0 32 0C49.6 0 64 14.4 64 32C64 49.6 49.6 64 32 64ZM32 4C16.6 4 4 16.6 4 32C4 47.4 16.6 60 32 60C47.4 60 60 47.4 60 32C60 16.6 47.4 4 32 4Z" fill="#FC5130"/>
</svg>
