<svg viewBox="0 0 64 64" fill="none" xmlns="http://www.w3.org/2000/svg">
<path d="M32 64C14.4 64 0 49.6 0 32C0 14.4 14.4 0 32 0C49.6 0 64 14.4 64 32C64 49.6 49.6 64 32 64ZM32 4C16.6 4 4 16.6 4 32C4 47.4 16.6 60 32 60C47.4 60 60 47.4 60 32C60 16.6 47.4 4 32 4Z" fill="#FC5130" />
<path d="M23.7 26H17.5V46H23.7V26Z" fill="#EEEEEE"/>
<path d="M20.6 23.2C18.6 23.2 17 21.6 17 19.6C17 17.6 18.6 16 20.6 16C22.6 16 24.2 17.6 24.2 19.6C24.2 21.6 22.6 23.2 20.6 23.2Z" fill="#EEEEEE"/>
<path d="M47 46H40.8V36.3C40.8 34 40.8 31 37.6 31C34.4 31 33.9 33.5 33.9 36.1V46H27.7V26H33.7V28.7H33.8C34.6 27.1 36.7 25.5 39.7 25.5C46 25.5 47.2 29.6 47.2 35V46H47Z" fill="#EEEEEE"/>
</svg>
