<svg width="64" height="64" viewBox="0 0 64 64" fill="none" xmlns="http://www.w3.org/2000/svg">
<path d="M55.2 4H8.8C6.15313 4 4 6.15313 4 8.8V46.4C4 49.0469 6.15313 51.2 8.8 51.2H23.8021C23.3411 53.4674 22.0388 55.4238 19.8227 57.1328C19.2805 57.5516 19.0648 58.268 19.2859 58.9164C19.5063 59.5641 20.1156 60 20.8 60H43.2C43.875 60 44.4766 59.5766 44.7055 58.9422C44.9336 58.307 44.7398 57.5977 44.2203 57.1672C41.7644 55.1348 40.407 53.1697 40.0714 51.2H55.2C57.8469 51.2 60 49.0469 60 46.4V8.8C60 6.15313 57.8469 4 55.2 4ZM8.8 7.2H55.2C56.082 7.2 56.8 7.91797 56.8 8.8V40H7.2V8.8C7.2 7.91797 7.91797 7.2 8.8 7.2ZM39.3383 56.8H24.675C25.9641 55.1156 26.7641 53.2438 27.0664 51.2H36.8242C37.0344 53.1117 37.875 54.9836 39.3383 56.8ZM55.2 48H38.4H25.6H8.8C7.91797 48 7.2 47.282 7.2 46.4V43.2H56.8V46.4C56.8 47.282 56.082 48 55.2 48Z" fill="#FC5130"/>
<path d="M33.6 44H30.4C29.5164 44 28.8 44.7164 28.8 45.6C28.8 46.4835 29.5164 47.2 30.4 47.2H33.6C34.4836 47.2 35.2 46.4835 35.2 45.6C35.2 44.7164 34.4836 44 33.6 44ZM45.8789 23.8617C46.1938 24.2749 46.6703 24.4921 47.1531 24.4921C47.4906 24.4921 47.8313 24.3859 48.1211 24.1648L52.9696 20.4726C53.3664 20.1703 53.6 19.6992 53.6 19.1999C53.6 18.7007 53.3664 18.2296 52.9696 17.9273L48.1211 14.2351C47.4172 13.6976 46.4141 13.8359 45.8789 14.5382C45.343 15.2414 45.4789 16.2453 46.1821 16.7804L49.3594 19.1999L46.1821 21.6195C45.4789 22.1546 45.343 23.1585 45.8789 23.8617ZM28.8 19.1999C28.8 19.6992 29.0336 20.1703 29.4305 20.4726L34.2789 24.1648C34.5688 24.3859 34.9094 24.4921 35.2469 24.4921C35.7297 24.4921 36.2063 24.2749 36.5211 23.8617C37.0571 23.1585 36.9211 22.1546 36.218 21.6195L33.0406 19.1999L36.218 16.7804C36.9211 16.2453 37.0571 15.2414 36.5211 14.5382C35.986 13.8359 34.9828 13.6976 34.2789 14.2351L29.4305 17.9273C29.0336 18.2296 28.8 18.7007 28.8 19.1999ZM37.9563 28.714C38.1274 28.7726 38.3016 28.8007 38.4727 28.8007C39.1383 28.8007 39.7602 28.3812 39.9867 27.7164L45.4414 11.7164C45.7266 10.8796 45.2797 9.97104 44.4438 9.68589C43.6055 9.39917 42.6977 9.8476 42.4133 10.6835L36.9586 26.6835C36.6735 27.5203 37.1203 28.4289 37.9563 28.714ZM12 36H49.6C50.4836 36 51.2 35.2835 51.2 34.4C51.2 33.5164 50.4836 32.7999 49.6 32.7999H12C11.1164 32.7999 10.4 33.5164 10.4 34.4C10.4 35.2835 11.1164 36 12 36ZM12 28.7999H27.2C28.0836 28.7999 28.8 28.0835 28.8 27.1999C28.8 26.3164 28.0836 25.5999 27.2 25.5999H12C11.1164 25.5999 10.4 26.3164 10.4 27.1999C10.4 28.0835 11.1164 28.7999 12 28.7999ZM12 21.5999H24C24.8836 21.5999 25.6 20.8835 25.6 19.9999C25.6 19.1164 24.8836 18.3999 24 18.3999H12C11.1164 18.3999 10.4 19.1164 10.4 19.9999C10.4 20.8835 11.1164 21.5999 12 21.5999ZM12 14.3999H28.8C29.6836 14.3999 30.4 13.6835 30.4 12.7999C30.4 11.9164 29.6836 11.1999 28.8 11.1999H12C11.1164 11.1999 10.4 11.9164 10.4 12.7999C10.4 13.6835 11.1164 14.3999 12 14.3999Z" fill="#FC5130"/>
</svg>
