<svg viewBox="0 0 64 64" fill="none" xmlns="http://www.w3.org/2000/svg">
<path d="M32 40.3229C31.6498 40.3233 31.3029 40.2545 30.9794 40.1204C30.6558 39.9863 30.362 39.7896 30.1147 39.5416L18.8008 28.2292C18.3008 27.7291 18.0198 27.0509 18.0198 26.3438C18.0198 25.6366 18.3008 24.9584 18.8008 24.4583C19.3009 23.9583 19.9791 23.6774 20.6862 23.6774C21.3934 23.6774 22.0716 23.9583 22.5717 24.4584L32 33.8853L41.4284 24.4583C41.9284 23.9582 42.6066 23.6773 43.3138 23.6773C44.021 23.6773 44.6992 23.9582 45.1992 24.4583C45.6993 24.9583 45.9802 25.6365 45.9802 26.3437C45.9802 27.0509 45.6993 27.7291 45.1993 28.2291L33.8854 39.5417C33.6381 39.7897 33.3442 39.9864 33.0207 40.1205C32.6971 40.2545 32.3503 40.3233 32 40.3229Z" fill="#EEEEEE"/>
<path d="M32 64C14.4 64 0 49.6 0 32C0 14.4 14.4 0 32 0C49.6 0 64 14.4 64 32C64 49.6 49.6 64 32 64ZM32 4C16.6 4 4 16.6 4 32C4 47.4 16.6 60 32 60C47.4 60 60 47.4 60 32C60 16.6 47.4 4 32 4Z" fill="#FC5130"/>
</svg>
