<svg viewBox="0 0 64 64" fill="none" xmlns="http://www.w3.org/2000/svg">
<path d="M37.04 48.986H27.984C27.984 48.986 27.996 46.298 27.984 44.456C21.786 45.79 20.056 41.058 20.056 41.058C18.924 38.794 17.792 37.66 17.792 37.66C15.528 36.314 17.792 36.528 17.792 36.528C20.056 36.528 21.19 38.792 21.19 38.792C23.178 42.166 26.714 41.624 27.984 41.056C27.984 39.924 28.48 38.212 29.116 37.658C24.17 37.1 20.052 34.26 20.052 28.598C20.052 22.936 21.188 21.804 22.322 20.67C22.094 20.112 21.146 18.048 22.358 15.008C22.358 15.008 24.584 15.008 26.848 18.406C27.97 17.284 31.378 17.274 32.512 17.274C33.642 17.274 37.05 17.284 38.172 18.406C40.436 15.008 42.668 15.008 42.668 15.008C43.878 18.048 42.932 20.112 42.702 20.67C43.834 21.802 44.966 22.934 44.966 28.598C44.966 34.262 40.854 37.1 35.906 37.658C36.544 38.21 37.038 40.16 37.038 41.056L37.04 48.986Z" fill="#EEEEEE"/>
<path d="M32 64C14.4 64 0 49.6 0 32C0 14.4 14.4 0 32 0C49.6 0 64 14.4 64 32C64 49.6 49.6 64 32 64ZM32 4C16.6 4 4 16.6 4 32C4 47.4 16.6 60 32 60C47.4 60 60 47.4 60 32C60 16.6 47.4 4 32 4Z" fill="#FC5130"/>
</svg>
