<svg width="64" height="64" viewBox="0 0 64 64" fill="none" xmlns="http://www.w3.org/2000/svg">
<path d="M56 39C56 37.6155 55.5895 36.2622 54.8203 35.111C54.0511 33.9599 52.9579 33.0627 51.6788 32.5328C50.3997 32.003 48.9922 31.8644 47.6344 32.1345C46.2765 32.4046 45.0292 33.0713 44.0503 34.0503C43.0713 35.0292 42.4046 36.2765 42.1345 37.6344C41.8644 38.9922 42.003 40.3997 42.5328 41.6788C43.0627 42.9579 43.9599 44.0511 45.111 44.8203C46.2622 45.5895 47.6155 46 49 46C50.8559 45.9979 52.6351 45.2597 53.9474 43.9474C55.2597 42.6351 55.9979 40.8559 56 39ZM49 44C48.0111 44 47.0444 43.7068 46.2222 43.1574C45.3999 42.6079 44.759 41.8271 44.3806 40.9134C44.0022 39.9998 43.9032 38.9945 44.0961 38.0246C44.289 37.0546 44.7652 36.1637 45.4645 35.4645C46.1637 34.7652 47.0546 34.289 48.0246 34.0961C48.9945 33.9032 49.9998 34.0022 50.9134 34.3806C51.8271 34.759 52.6079 35.3999 53.1574 36.2222C53.7068 37.0444 54 38.0111 54 39C53.9984 40.3256 53.4711 41.5964 52.5338 42.5338C51.5964 43.4711 50.3256 43.9984 49 44Z" fill="#FC5130"/>
<path d="M51.293 36.293L48 39.586L46.707 38.293L45.293 39.707L47.293 41.707C47.4805 41.8944 47.7348 41.9998 48 41.9998C48.2652 41.9998 48.5195 41.8944 48.707 41.707L52.707 37.707L51.293 36.293ZM32 53C31.4067 53 30.8266 53.1759 30.3333 53.5056C29.8399 53.8352 29.4554 54.3037 29.2284 54.8519C29.0013 55.4001 28.9419 56.0033 29.0576 56.5852C29.1734 57.1672 29.4591 57.7017 29.8787 58.1213C30.2982 58.5408 30.8328 58.8266 31.4147 58.9423C31.9967 59.0581 32.5999 58.9987 33.148 58.7716C33.6962 58.5445 34.1648 58.16 34.4944 57.6667C34.8241 57.1733 35 56.5933 35 56C35 55.2043 34.6839 54.4413 34.1213 53.8787C33.5587 53.316 32.7957 53 32 53ZM32 57C31.8022 57 31.6089 56.9413 31.4444 56.8314C31.28 56.7216 31.1518 56.5654 31.0761 56.3827C31.0004 56.1999 30.9806 55.9989 31.0192 55.8049C31.0578 55.6109 31.153 55.4327 31.2929 55.2929C31.4327 55.153 31.6109 55.0578 31.8049 55.0192C31.9989 54.9806 32.2 55.0004 32.3827 55.0761C32.5654 55.1518 32.7216 55.28 32.8315 55.4444C32.9414 55.6089 33 55.8022 33 56C33 56.2652 32.8946 56.5195 32.7071 56.7071C32.5196 56.8946 32.2652 57 32 57Z" fill="#FC5130"/>
<path d="M35 5H29V7H35V5Z" fill="#FC5130"/>
<path d="M61 24H51V7C50.9984 5.67441 50.4711 4.40356 49.5338 3.46622C48.5964 2.52888 47.3256 2.00159 46 2H18C16.6744 2.00159 15.4036 2.52888 14.4662 3.46622C13.5289 4.40356 13.0016 5.67441 13 7V12H3C2.73478 12 2.48043 12.1054 2.29289 12.2929C2.10536 12.4804 2 12.7348 2 13V35C2 35.2652 2.10536 35.5196 2.29289 35.7071C2.48043 35.8946 2.73478 36 3 36H13V57C13.0016 58.3256 13.5289 59.5964 14.4662 60.5338C15.4036 61.4711 16.6744 61.9984 18 62H46C47.3256 61.9984 48.5964 61.4711 49.5338 60.5338C50.4711 59.5964 50.9984 58.3256 51 57V48H61C61.2652 48 61.5196 47.8946 61.7071 47.7071C61.8946 47.5196 62 47.2652 62 47V25C62 24.7348 61.8946 24.4804 61.7071 24.2929C61.5196 24.1054 61.2652 24 61 24ZM60 30H38V26H60V30ZM18 4H46C46.7957 4 47.5587 4.31607 48.1213 4.87868C48.6839 5.44129 49 6.20435 49 7V8H15V7C15 6.20435 15.3161 5.44129 15.8787 4.87868C16.4413 4.31607 17.2044 4 18 4ZM26 14V18H4V14H26ZM4 20H26V34H4V20ZM46 60H18C17.2044 60 16.4413 59.6839 15.8787 59.1213C15.3161 58.5587 15 57.7957 15 57V52H49V57C49 57.7957 48.6839 58.5587 48.1213 59.1213C47.5587 59.6839 46.7957 60 46 60ZM49 50H15V36H27C27.2652 36 27.5196 35.8946 27.7071 35.7071C27.8946 35.5196 28 35.2652 28 35V13C28 12.7348 27.8946 12.4804 27.7071 12.2929C27.5196 12.1054 27.2652 12 27 12H15V10H49V24H37C36.7348 24 36.4804 24.1054 36.2929 24.2929C36.1054 24.4804 36 24.7348 36 25V47C36 47.2652 36.1054 47.5196 36.2929 47.7071C36.4804 47.8946 36.7348 48 37 48H49V50ZM49 46H38V32H60V46H49Z" fill="#FC5130"/>
<path d="M41 27H39V29H41V27Z" fill="#FC5130"/>
<path d="M44 27H42V29H44V27Z" fill="#FC5130"/>
<path d="M47 27H45V29H47V27Z" fill="#FC5130"/>
<path d="M9.14299 21.485L6.14299 26.485C6.04955 26.6405 6.00018 26.8185 6.00018 27C6.00018 27.1814 6.04955 27.3595 6.14299 27.515L9.14299 32.515L10.857 31.485L8.16599 27L10.857 22.515L9.14299 21.485ZM20.857 21.485L19.143 22.515L21.834 27L19.143 31.485L20.857 32.515L23.857 27.515C23.9504 27.3595 23.9998 27.1814 23.9998 27C23.9998 26.8185 23.9504 26.6405 23.857 26.485L20.857 21.485Z" fill="#FC5130"/>
<path d="M16.0696 21.6284L12.0732 31.6295L13.9305 32.3716L17.9268 22.3705L16.0696 21.6284Z" fill="#FC5130"/>
<path d="M7 15H5V17H7V15Z" fill="#FC5130"/>
<path d="M10 15H8V17H10V15Z" fill="#FC5130"/>
<path d="M13 15H11V17H13V15Z" fill="#FC5130"/>
<path d="M32 14H30V16H32V14Z" fill="#FC5130"/>
<path d="M38 14H34V16H38V14Z" fill="#FC5130"/>
<path d="M47 16V14H42H40V16H42H47Z" fill="#FC5130"/>
<path d="M34 18H30V20H34V18Z" fill="#FC5130"/>
<path d="M38 18H36V20H38V18Z" fill="#FC5130"/>
<path d="M47 18H40V20H47V18Z" fill="#FC5130"/>
<path d="M24 40H18V42H24V40Z" fill="#FC5130"/>
<path d="M32 40H26V42H32V40Z" fill="#FC5130"/>
<path d="M22 44H20V46H22V44Z" fill="#FC5130"/>
<path d="M28 44H24V46H28V44Z" fill="#FC5130"/>
<path d="M32 44H30V46H32V44Z" fill="#FC5130"/>
</svg>
