<svg viewBox="0 0 64 64" fill="none" xmlns="http://www.w3.org/2000/svg">
<g clip-path="url(#clip0)">
<path d="M568.042 195.841L622.717 141.304L568.042 86.7668L584.711 70.1444L656.055 141.304L584.711 212.463L568.042 195.841Z" fill="#E6E6E6"/>
<path d="M434.134 119.425H411.909V141.662H434.134V119.425Z" fill="#E6E6E6"/>
<path d="M523.48 119.425H501.255V141.662H523.48V119.425Z" fill="#E6E6E6"/>
<path d="M478.807 119.425H456.582V141.662H478.807V119.425Z" fill="#E6E6E6"/>
<path d="M381.794 195.285L327.064 140.748L381.739 86.2112L365.07 69.5889L293.782 140.748L365.125 211.908L381.794 195.285Z" fill="#E6E6E6"/>
<path d="M568.042 185.278L622.717 130.742L568.042 76.2037L584.711 59.5813L656.055 130.742L584.711 201.901L568.042 185.278Z" fill="#FC5130"/>
<path d="M411.909 134.633H434.134V112.395H411.909L411.909 134.633ZM523.48 112.395H501.255V134.633H523.48V112.395ZM456.582 134.633H478.807V112.395H456.582V134.633Z" fill="#FC5130"/>
<path d="M381.794 184.722L327.064 130.185L381.739 75.6481L365.07 59.0258L293.782 130.185L365.125 201.344L381.794 184.722Z" fill="#FC5130"/>
<path d="M114.15 362.54L126.592 365.549L144.115 318.966L125.752 314.524L114.15 362.54Z" fill="#A0616A"/>
<path d="M108.259 373.718L112.08 357.906L136.423 363.794C140.519 364.789 144.054 367.37 146.251 370.97C148.448 374.57 149.128 378.895 148.142 382.996L148.058 383.344L108.259 373.718Z" fill="#2F2E41"/>
<path d="M169.229 371.02L182.029 371.019L188.118 321.62L169.227 321.621L169.229 371.02Z" fill="#A0616A"/>
<path d="M166.128 367.002L191.172 367.001H191.173C195.39 367.001 199.434 368.677 202.416 371.661C205.398 374.644 207.073 378.691 207.073 382.91V383.268L166.129 383.27L166.128 367.002Z" fill="#2F2E41"/>
<path d="M166.225 353.926L168.33 277.075L165.495 245.912L159.963 269.894L135.793 348.757L114.956 343.271L139.088 258.238L133.847 203.697L148.905 194.012L149.109 194.048L200.557 203.537L188.129 351.735L166.225 353.926Z" fill="#2F2E41"/>
<path d="M186.587 214.236C182.444 214.236 177.598 212.901 172.205 209.091C154.945 196.904 134.366 210.015 134.159 210.147L133.324 210.691L133.353 209.694C133.374 208.984 135.441 138.404 135.441 115.692C135.441 92.2274 150.742 75.095 155.431 70.4032C160.034 65.7972 163.907 65.8992 168.81 66.0268C169.655 66.0482 170.535 66.0716 171.462 66.0716C177.869 66.0716 184.098 72.2303 184.36 72.4925L184.485 72.618L184.508 72.7935L202.286 206.726L202.15 206.898C202.068 207.003 196.23 214.236 186.587 214.236Z" fill="#CCCCCC"/>
<path d="M196.684 44.8143C203.477 32.3806 198.91 16.7911 186.483 9.99426C174.056 3.19738 158.475 7.76692 151.682 20.2006C144.888 32.6343 149.456 48.2238 161.883 55.0207C174.31 61.8176 189.891 57.248 196.684 44.8143Z" fill="#A0616A"/>
<path d="M213.439 235.681C212.225 234.74 211.233 233.545 210.532 232.179C209.83 230.813 209.436 229.31 209.378 227.775C209.32 226.241 209.599 224.712 210.195 223.297C210.792 221.882 211.691 220.615 212.829 219.585L198.267 185.216L217.335 188.727L228.24 220.826C229.843 222.855 230.646 225.401 230.497 227.982C230.348 230.564 229.258 233.001 227.434 234.832C225.609 236.663 223.177 237.761 220.598 237.917C218.018 238.074 215.471 237.278 213.439 235.681Z" fill="#A0616A"/>
<path d="M209.314 216.117L183 162.408L171.462 121.984L171.471 86.8676C171.497 86.7288 174.209 73.069 184.263 74.0136C193.379 74.8971 198.289 79.3572 200.68 88.9273C202.711 97.057 199.933 121.175 199.664 123.451C201.428 127.636 227.893 190.726 223.511 198.323C223.347 198.619 223.109 198.866 222.819 199.041L227.508 208.947L209.314 216.117Z" fill="#CCCCCC"/>
<path d="M170.904 42.1738C173.978 42.574 176.297 39.4271 177.372 36.5182C178.448 33.6092 179.267 30.2226 181.94 28.6512C185.591 26.5044 190.263 29.0864 194.439 28.3782C199.154 27.5783 202.22 22.578 202.46 17.7987C202.701 13.0194 200.8 8.42263 198.935 4.01612L198.283 9.49242C198.37 7.63637 197.98 5.78901 197.15 4.12704C196.319 2.46507 195.076 1.04408 193.54 0L194.38 8.03562C194.201 6.92698 193.805 5.86455 193.215 4.9093C192.625 3.95404 191.852 3.12476 190.941 2.46906C190.03 1.81337 188.999 1.34417 187.906 1.08838C186.813 0.83259 185.68 0.795251 184.573 0.978509L184.705 5.76644C179.259 5.11845 173.765 4.46955 168.302 4.96322C162.84 5.45689 157.339 7.18613 153.199 10.7856C147.006 16.1698 144.744 25.0356 145.503 33.2092C146.263 41.3827 149.635 49.0612 153.15 56.4787C154.034 58.345 155.257 60.4509 157.307 60.6886C159.15 60.9022 160.836 59.3613 161.408 57.5962C161.85 55.7852 161.833 53.8927 161.359 52.0899C160.841 49.3349 160.187 46.5189 160.675 43.7582C161.162 40.9975 163.147 38.2695 165.928 37.9312C168.709 37.5928 171.556 40.7738 170.218 43.2373L170.904 42.1738Z" fill="#2F2E41"/>
<path d="M805.633 232.26C804.778 231.284 804.146 230.132 803.783 228.885C803.421 227.638 803.336 226.327 803.534 225.044C803.733 223.761 804.21 222.537 804.932 221.458C805.655 220.379 806.605 219.472 807.716 218.801L801.153 187.927L816.416 193.911L820.308 222.311C821.312 224.253 821.569 226.496 821.031 228.615C820.493 230.733 819.196 232.581 817.387 233.807C815.578 235.034 813.383 235.553 811.217 235.268C809.05 234.983 807.064 233.913 805.633 232.26V232.26Z" fill="#FFB8B8"/>
<path d="M803.9 208.171L803.818 207.868C795.567 177.332 787.038 145.766 776.624 111.397L776.556 111.172L776.786 111.038C782.59 107.649 791.314 107.875 797.078 111.562C799.687 113.244 801.717 115.687 802.892 118.561C804.068 121.435 804.332 124.601 803.649 127.63L811.244 167.251C814.332 180.203 817.527 193.609 820.581 206.827L820.668 207.202L820.195 207.232C814.634 207.586 808.889 207.952 804.286 208.154L803.9 208.171Z" fill="#CCCCCC"/>
<path d="M733.776 372.516H722.953L717.803 330.749H733.776V372.516Z" fill="#FFB8B8"/>
<path d="M736.537 383.013H701.639V382.572C701.643 378.968 703.076 375.514 705.622 372.966C708.169 370.418 711.621 368.985 715.223 368.981H736.537L736.537 383.013Z" fill="#2F2E41"/>
<path d="M835.761 363.584L825.449 366.871L807.867 328.639L823.087 323.787L835.761 363.584Z" fill="#FFB8B8"/>
<path d="M808.326 383.347L808.192 382.926C807.103 379.492 807.419 375.765 809.072 372.564C810.726 369.363 813.58 366.949 817.01 365.851L837.318 359.376L841.576 372.746L808.326 383.347Z" fill="#2F2E41"/>
<path d="M780.982 83.4142C792.957 83.4142 802.664 73.7014 802.664 61.72C802.664 49.7387 792.957 40.0259 780.982 40.0259C769.007 40.0259 759.3 49.7387 759.3 61.72C759.3 73.7014 769.007 83.4142 780.982 83.4142Z" fill="#FFB8B8"/>
<path d="M790.717 57.6994C790.84 48.9493 787.18 40.2835 781.521 35.9266C778.854 33.8125 775.537 32.6897 772.135 32.7499C768.732 32.81 765.457 34.0494 762.866 36.2565C757.295 40.8119 753.806 49.6041 754.101 58.3468C766.585 58.3823 779.068 58.4178 790.717 57.6994Z" fill="#2F2E41"/>
<path d="M739.955 359.072L739.521 359.029C730.106 358.105 720.369 357.15 711.168 357.04L710.667 357.034L710.735 356.538C712.916 340.74 713.84 324.317 714.734 308.433C715.616 292.75 716.528 276.533 718.654 261.131C719.553 257.007 720.429 252.932 721.303 248.871C728.529 215.269 735.354 183.529 749.443 152.111L749.577 151.815L749.899 151.853C763.119 153.454 775.821 158.28 785.666 165.441L785.857 165.58L785.848 165.815C785.658 170.695 785.461 175.74 785.752 180.336C790.22 186.548 793.181 193.716 794.4 201.271C795.619 208.827 795.062 216.563 792.774 223.866C796.65 236.829 800.658 250.228 804.747 263.445C814.677 290.684 824.953 318.872 835.486 347.446L835.659 347.914L835.173 348.028C827.594 349.808 819.777 351.644 812.064 352.357L811.773 352.383L811.635 352.125C791.967 315.505 775.972 277.025 763.885 237.25C761.253 245.281 757.462 252.53 753.788 259.552C750.276 265.938 747.184 272.548 744.535 279.339C742.909 292.695 742.478 307.165 742.061 321.159C741.667 334.39 741.295 346.887 740.003 358.638L739.955 359.072Z" fill="#2F2E41"/>
<path d="M773.58 36.3279C782.978 34.302 793.374 36.2294 800.755 42.5739C808.135 48.9184 811.884 59.8941 808.851 69.3072C805.819 78.7203 795.525 85.3433 786.217 82.9125C788.883 75.3937 785.882 66.1625 779.364 61.8316C771.634 56.6956 769.506 44.4337 773.58 36.3279Z" fill="#2F2E41"/>
<path d="M784.99 166.384L784.647 166.228C772.657 160.755 760.901 156.555 749.886 152.724L749.548 152.651L749.547 151.671L749.766 151.747C749.812 151.646 749.864 151.53 749.916 151.415C750.067 151.082 750.17 150.855 750.257 150.705L750.254 150.704C751.173 148.831 751.903 147.022 752.609 145.272C753.337 143.467 754.089 141.602 755.061 139.629C752.705 137.266 751.093 134.265 750.422 130.996C749.751 127.727 750.051 124.333 751.286 121.232C753.719 115.462 759.923 110.968 766.442 110.222C768.83 103.643 774.153 89.8184 774.153 89.8184C774.153 89.8184 785.345 89.5109 789.846 88.9394L789.922 88.9299L789.996 88.9463C799.823 91.1006 808.026 100.404 809.946 111.57C811.566 120.995 809.106 131.775 803.018 141.925C799.895 146.888 796.441 151.636 792.681 156.136C789.939 159.566 787.349 162.806 785.198 166.069L784.99 166.384Z" fill="#CCCCCC"/>
<path d="M806.692 49.1838C800.113 48.2012 794.948 41.4724 795.696 34.859C796.444 28.2457 802.981 22.8417 809.613 23.3547C816.245 23.8676 821.875 30.2127 821.598 36.8625C821.321 43.5123 815.092 50.4383 806.692 49.1838Z" fill="#2F2E41"/>
<path d="M805.665 44.8956C799.086 43.913 793.921 37.1842 794.669 30.5709C794.995 28.3215 795.885 26.1913 797.256 24.3789C798.627 22.5666 800.434 21.131 802.51 20.2062C797.204 21.3681 792.638 25.9938 792.02 31.4542C791.272 38.0674 796.438 44.7963 803.017 45.7789C805.469 46.1638 807.979 45.8125 810.231 44.7693C808.729 45.0849 807.183 45.1276 805.665 44.8956Z" fill="#2F2E41"/>
<path d="M678.049 161.468C678.684 160.336 679.559 159.356 680.613 158.598C681.667 157.841 682.874 157.324 684.15 157.083C685.425 156.843 686.738 156.886 687.995 157.208C689.252 157.53 690.423 158.124 691.426 158.948L718.333 142.47L717.78 158.863L692.314 171.998C690.818 173.592 688.791 174.581 686.615 174.779C684.439 174.977 682.266 174.37 680.507 173.072C678.749 171.774 677.528 169.876 677.075 167.738C676.622 165.599 676.968 163.368 678.049 161.468V161.468Z" fill="#FFB8B8"/>
<path d="M700.172 151.807L700.43 151.629C726.457 133.671 753.361 115.107 782.279 93.8321L782.469 93.6926L782.672 93.8647C787.799 98.211 790.493 106.516 788.938 113.182C788.223 116.204 786.597 118.933 784.28 120.999C781.964 123.066 779.068 124.37 775.986 124.735L741.179 145.101C730.003 152.329 718.435 159.811 706.996 167.096L706.672 167.303L706.486 166.866C704.3 161.738 702.04 156.44 700.316 152.165L700.172 151.807Z" fill="#CCCCCC"/>
<path d="M337.229 384H0.882798C0.648665 384 0.424121 383.907 0.258565 383.741C0.0930081 383.576 0 383.351 0 383.117C0 382.882 0.0930081 382.658 0.258565 382.492C0.424121 382.326 0.648665 382.233 0.882798 382.233H337.229C337.463 382.233 337.687 382.326 337.853 382.492C338.018 382.658 338.112 382.882 338.112 383.117C338.112 383.351 338.018 383.576 337.853 383.741C337.687 383.907 337.463 384 337.229 384Z" fill="#3F3D56"/>
<path d="M933.117 384H596.771C596.537 384 596.313 383.907 596.147 383.741C595.981 383.576 595.888 383.351 595.888 383.117C595.888 382.882 595.981 382.658 596.147 382.492C596.313 382.326 596.537 382.233 596.771 382.233H933.117C933.351 382.233 933.576 382.326 933.741 382.492C933.907 382.658 934 382.882 934 383.117C934 383.351 933.907 383.576 933.741 383.741C933.576 383.907 933.351 384 933.117 384Z" fill="#3F3D56"/>
</g>
<defs>
<clipPath id="clip0">
<rect width="934" height="384" fill="white"/>
</clipPath>
</defs>
</svg>
