<svg viewBox="0 0 719 360" fill="none" xmlns="http://www.w3.org/2000/svg">
<g clip-path="url(#clip0)">
<path d="M109.681 307.605C93.7145 318.445 89.1895 337.519 89.1895 337.519C89.1895 337.519 110.551 339.016 126.517 328.176C142.483 317.335 147.008 298.262 147.008 298.262C147.008 298.262 125.647 296.764 109.681 307.605Z" fill="#F1F1F1"/>
<path d="M116.331 312.695C108.658 329.432 89.44 338.058 89.44 338.058C89.44 338.058 82.6631 319.546 90.3366 302.808C98.01 286.071 117.228 277.446 117.228 277.446C117.228 277.446 124.005 295.957 116.331 312.695Z" fill="#F1F1F1"/>
<path d="M575.689 264.309C573.993 253.9 573.545 243.355 574.353 232.859L575.689 215.487C568.324 228.835 569.989 246.403 575.689 264.308V264.309Z" fill="#CACACA"/>
<path d="M581.432 267.215C580.616 261.004 580.401 254.74 580.789 248.495L581.432 238.155C577.889 246.1 578.69 256.557 581.432 267.215Z" fill="#CACACA"/>
<path d="M606.96 280.003V285.815C606.958 286.277 606.755 286.719 606.397 287.045C606.038 287.372 605.553 287.556 605.046 287.558H601.855C601.771 287.558 601.688 287.573 601.611 287.602C601.533 287.631 601.463 287.674 601.403 287.728C601.344 287.782 601.297 287.846 601.265 287.917C601.233 287.988 601.217 288.063 601.217 288.14V335.799C601.214 336.261 601.012 336.703 600.653 337.029C600.295 337.356 599.81 337.54 599.303 337.543H560.378C559.87 337.542 559.383 337.358 559.024 337.031C558.665 336.705 558.464 336.261 558.463 335.799V288.14C558.463 287.986 558.395 287.838 558.276 287.729C558.156 287.62 557.994 287.559 557.825 287.558H553.996C553.489 287.558 553.002 287.374 552.643 287.047C552.284 286.72 552.082 286.277 552.082 285.815V280.003C552.082 279.774 552.131 279.547 552.227 279.335C552.323 279.123 552.464 278.931 552.642 278.769C552.82 278.607 553.031 278.479 553.263 278.391C553.496 278.304 553.745 278.259 553.996 278.259H605.046C605.553 278.26 606.039 278.445 606.398 278.771C606.756 279.098 606.959 279.541 606.96 280.003Z" fill="#F2F2F2"/>
<path d="M601.274 288.779H558.521V290.522H601.274V288.779Z" fill="#E6E6E6"/>
<path d="M601.217 314.436C586.911 319.828 572.448 319.888 557.825 314.436V302.152C571.903 297.846 587.14 297.846 601.217 302.152V314.436Z" fill="#E6E6E6"/>
<path d="M361.576 126.617C393.514 126.617 419.404 103.035 419.404 73.9464C419.404 44.8574 393.514 21.2761 361.576 21.2761C329.639 21.2761 303.749 44.8574 303.749 73.9464C303.749 103.035 329.639 126.617 361.576 126.617Z" fill="#FEB8B8"/>
<path d="M415.588 28.5063C406.942 15.7191 393.409 6.29672 377.593 2.0529L370.494 6.77151V0.644535C366.696 0.115036 362.851 -0.0889426 359.011 0.0352827L352.886 5.08289V0.45464C343.818 1.48104 335.081 4.2077 327.227 8.46267C319.374 12.7176 312.573 18.4086 307.254 25.1768C293.953 42.6418 291.708 66.9395 304.79 84.5447C308.381 74.4921 312.74 65.06 316.332 55.0085C319.155 55.3589 322.016 55.3715 324.842 55.046L329.211 45.7601L330.431 54.6531C343.974 53.5788 364.061 51.219 376.9 49.0572L375.651 42.2346L383.12 47.9037C387.054 47.0792 389.389 46.3308 389.196 45.7592C398.745 59.7799 410.43 68.7348 419.978 82.7556C423.604 62.9855 427.778 46.5471 415.588 28.5063Z" fill="#2F2E41"/>
<path d="M485.946 209.39C483.958 198.493 481.907 187.388 476.347 177.572C472.693 171.142 466.892 165.015 459.072 163.744C457.532 163.619 456.018 163.3 454.574 162.796C452.283 161.79 421.494 145.781 416.6 142.993C412.398 140.599 405.765 136.167 402.421 136.167C399.056 136.1 386.155 138.835 335.798 135.25C335.798 135.25 321.965 140.216 311.261 146.238C311.099 146.141 258.996 171.625 257.038 171.557C253.331 171.415 249.885 173.577 247.76 176.299C245.636 179.022 244.639 182.392 243.595 185.65C254.976 208.734 265.388 231.846 276.769 254.93C277.302 255.799 277.585 256.777 277.592 257.773C277.364 258.806 276.879 259.778 276.176 260.616C270.595 268.782 270.773 279.053 271.382 288.65C271.993 298.248 272.747 308.386 268.038 316.988C266.757 319.35 265.091 321.512 263.873 323.874C261.02 329.223 259.989 346.331 261.655 352.079L470.425 357.526C465.937 346.288 485.946 209.39 485.946 209.39Z" fill="#FC5130"/>
<path d="M225.55 255.952C225.133 258.697 225.091 261.478 225.425 264.232L228.417 303.372C228.698 307.061 228.974 310.741 229.354 314.421C230.072 321.562 231.145 328.646 232.476 335.721C232.506 336.725 232.972 337.678 233.773 338.369C234.573 339.061 235.642 339.435 236.745 339.41C249.916 341.948 263.525 341.847 276.968 341.155C297.48 340.112 349.96 338.14 353.166 334.346C356.372 330.552 354.504 324.416 350.323 321.349C346.143 318.281 276.888 310.803 276.888 310.803C277.565 305.919 279.606 301.319 281.543 296.681C285.021 288.457 288.27 279.962 288.332 271.151C288.395 262.34 284.75 253.077 276.826 248.029C270.308 243.885 261.915 243.117 253.972 243.287C248.193 243.439 238.207 242.177 232.929 244.236C228.751 245.911 226.33 252.227 225.55 255.952Z" fill="#FBBEBE"/>
<path d="M242.993 186.353C241.979 187.32 241.193 188.466 240.682 189.72C232.266 206.997 227.294 225.501 226.001 244.365C226.024 245.285 225.791 246.195 225.324 247.011C224.864 247.554 224.352 248.059 223.794 248.519C223.307 249.045 222.939 249.652 222.71 250.308C222.481 250.963 222.396 251.653 222.46 252.338C222.524 253.023 222.735 253.69 223.082 254.3C223.429 254.911 223.904 255.453 224.481 255.897C224.576 255.969 224.673 256.039 224.772 256.106C226.49 253.162 230.603 252.199 234.259 251.943C251.761 250.682 268.858 258.099 286.414 257.539C285.175 253.641 283.394 249.895 282.383 245.95C277.916 228.433 289.058 209.362 282.227 192.49C280.863 189.114 278.583 185.794 274.991 184.315C273.504 183.768 271.947 183.393 270.358 183.198C265.922 182.468 257.091 179.347 252.803 180.599C251.22 181.065 250.595 182.42 249.283 183.239C247.29 184.399 244.645 184.826 242.993 186.353Z" fill="#FC5130"/>
<path d="M486.071 244.236C480.793 242.177 470.807 243.438 465.028 243.287C457.085 243.117 448.692 243.885 442.174 248.029C434.25 253.077 430.605 262.34 430.668 271.151C430.73 279.962 433.979 288.457 437.457 296.681C439.394 301.319 441.435 305.919 442.111 310.803C442.111 310.803 372.857 318.281 368.677 321.349C364.496 324.416 362.628 330.552 365.834 334.346C369.04 338.14 469.084 341.948 482.255 339.41C483.358 339.435 484.427 339.061 485.227 338.369C486.028 337.678 486.494 336.725 486.524 335.721C487.855 328.646 488.928 321.562 489.645 314.421C490.026 310.741 490.302 307.061 490.583 303.372L493.575 264.232C493.909 261.478 493.867 258.697 493.45 255.952C492.67 252.227 490.249 245.911 486.071 244.236Z" fill="#FBBEBE"/>
<path d="M469.717 183.24C468.405 182.42 467.78 181.065 466.197 180.6C461.909 179.348 453.078 182.468 448.642 183.198C447.053 183.393 445.496 183.769 444.009 184.315C440.417 185.794 438.137 189.114 436.773 192.49C429.942 209.362 441.084 228.434 436.616 245.95C435.606 249.895 433.825 253.641 432.586 257.539C450.142 258.099 467.239 250.682 484.741 251.943C488.397 252.199 492.509 253.162 494.227 256.107C494.327 256.04 494.424 255.97 494.519 255.897C495.096 255.454 495.571 254.911 495.918 254.3C496.265 253.69 496.476 253.023 496.54 252.338C496.604 251.653 496.519 250.963 496.29 250.308C496.061 249.653 495.693 249.045 495.206 248.519C494.648 248.059 494.136 247.554 493.676 247.012C493.209 246.195 492.976 245.285 492.999 244.365C491.706 225.501 486.734 206.997 478.318 189.72C477.807 188.466 477.021 187.32 476.007 186.353C474.355 184.826 471.71 184.399 469.717 183.24Z" fill="#FC5130"/>
<path d="M344.45 341.279C353.07 341.279 360.057 334.914 360.057 327.063C360.057 319.212 353.07 312.848 344.45 312.848C335.83 312.848 328.842 319.212 328.842 327.063C328.842 334.914 335.83 341.279 344.45 341.279Z" fill="#FBBEBE"/>
<path d="M379.01 341.279C387.629 341.279 394.617 334.914 394.617 327.063C394.617 319.212 387.629 312.848 379.01 312.848C370.39 312.848 363.402 319.212 363.402 327.063C363.402 334.914 370.39 341.279 379.01 341.279Z" fill="#FBBEBE"/>
<path d="M475.351 359.097H260.927C258.423 359.094 256.023 358.187 254.253 356.575C252.483 354.963 251.487 352.777 251.484 350.497V232.012C251.487 229.732 252.483 227.546 254.253 225.934C256.023 224.321 258.423 223.414 260.927 223.412H475.351C477.855 223.414 480.255 224.321 482.025 225.934C483.795 227.546 484.791 229.732 484.794 232.012V350.497C484.791 352.777 483.795 354.963 482.025 356.575C480.255 358.187 477.855 359.094 475.351 359.097Z" fill="#3F3D56"/>
<path d="M367.619 296.945C371.069 296.945 373.866 294.398 373.866 291.255C373.866 288.112 371.069 285.564 367.619 285.564C364.168 285.564 361.371 288.112 361.371 291.255C361.371 294.398 364.168 296.945 367.619 296.945Z" fill="white"/>
<path d="M719 335.198H0V355.322H42.528V360H676.488V355.322H719V335.198Z" fill="#F1F1F1"/>
<path d="M308.401 93.5774C299.109 93.5774 291.576 86.1594 291.576 77.0089V68.7245C291.576 59.574 299.109 52.156 308.4 52.156V93.5774H308.401Z" fill="#FC5130"/>
<path d="M415.783 52.156C425.075 52.156 432.607 59.574 432.607 68.7245V77.0088C432.607 86.1594 425.075 93.5774 415.783 93.5774V52.156Z" fill="#FC5130"/>
<path d="M424.599 70.026H421.93C421.93 36.6868 394.388 9.56336 360.535 9.56336C326.681 9.56336 299.14 36.6869 299.14 70.026H296.47C296.47 35.2372 325.209 6.93457 360.535 6.93457C395.86 6.93459 424.599 35.2373 424.599 70.026Z" fill="#FC5130"/>
</g>
<defs>
<clipPath id="clip0">
<rect width="719" height="360" fill="white"/>
</clipPath>
</defs>
</svg>
